<svg xmlns="http://www.w3.org/2000/svg" viewBox="0 0 54.96 55"><defs><style>.cls-1{fill:#333;}</style></defs><title>Asset 112</title><g id="Layer_2" data-name="Layer 2"><g id="Row8"><g id="icon-grid"><g id="symbol"><path class="cls-1" d="M12.51,15H1a1,1,0,0,1-1-1V2.5A2.51,2.51,0,0,1,2.49,0H14a1,1,0,0,1,1,1V12.5A2.5,2.5,0,0,1,12.51,15"/><path class="cls-1" d="M32.48,15H21a1,1,0,0,1-1-1V2.5A2.51,2.51,0,0,1,22.47,0H34a1,1,0,0,1,1,1V12.5a2.5,2.5,0,0,1-2.5,2.5"/><path class="cls-1" d="M52.46,15H41a1,1,0,0,1-1-1V2.5A2.51,2.51,0,0,1,42.45,0H54a1,1,0,0,1,1,1V12.5a2.5,2.5,0,0,1-2.5,2.5"/><path class="cls-1" d="M12.51,35H1a1,1,0,0,1-1-1V22.5A2.51,2.51,0,0,1,2.49,20H14a1,1,0,0,1,1,1V32.5A2.5,2.5,0,0,1,12.51,35"/><path class="cls-1" d="M32.48,35H21a1,1,0,0,1-1-1V22.5A2.51,2.51,0,0,1,22.47,20H34a1,1,0,0,1,1,1V32.5a2.5,2.5,0,0,1-2.5,2.5"/><path class="cls-1" d="M52.46,35H41a1,1,0,0,1-1-1V22.5A2.51,2.51,0,0,1,42.45,20H54a1,1,0,0,1,1,1V32.5a2.5,2.5,0,0,1-2.5,2.5"/><path class="cls-1" d="M12.51,55H1a1,1,0,0,1-1-1V42.5A2.51,2.51,0,0,1,2.49,40H14a1,1,0,0,1,1,1V52.5A2.5,2.5,0,0,1,12.51,55"/><path class="cls-1" d="M32.48,55H21a1,1,0,0,1-1-1V42.5A2.51,2.51,0,0,1,22.47,40H34a1,1,0,0,1,1,1V52.5a2.5,2.5,0,0,1-2.5,2.5"/><path class="cls-1" d="M52.46,55H41a1,1,0,0,1-1-1V42.5A2.51,2.51,0,0,1,42.45,40H54a1,1,0,0,1,1,1V52.5a2.5,2.5,0,0,1-2.5,2.5"/></g></g></g></g></svg>