<svg xmlns="http://www.w3.org/2000/svg" viewBox="0 0 54.97 55"><defs><style>.cls-1{fill:#333;}</style></defs><title>Asset 111</title><g id="Layer_2" data-name="Layer 2"><g id="Row8"><g id="icon-list"><g id="symbol"><circle class="cls-1" cx="5" cy="35" r="5"/><circle class="cls-1" cx="5" cy="5" r="5"/><circle class="cls-1" cx="5" cy="50" r="5"/><path class="cls-1" d="M52.46,10H16a1,1,0,0,1-1-1V2.5A2.51,2.51,0,0,1,17.45,0H54a1,1,0,0,1,1,1V7.5a2.5,2.5,0,0,1-2.5,2.5"/><path class="cls-1" d="M52.46,40H16a1,1,0,0,1-1-1V32.5A2.51,2.51,0,0,1,17.45,30H54a1,1,0,0,1,1,1v6.5a2.5,2.5,0,0,1-2.5,2.5"/><circle class="cls-1" cx="5.01" cy="20" r="5"/><path class="cls-1" d="M52.47,25H16a1,1,0,0,1-1-1V17.5A2.51,2.51,0,0,1,17.46,15H54a1,1,0,0,1,1,1v6.5a2.51,2.51,0,0,1-2.5,2.5"/><path class="cls-1" d="M52.46,55H16a1,1,0,0,1-1-1V47.5A2.51,2.51,0,0,1,17.45,45H54a1,1,0,0,1,1,1v6.5a2.5,2.5,0,0,1-2.5,2.5"/></g></g></g></g></svg>