<svg id="Layer_1" data-name="Layer 1" xmlns="http://www.w3.org/2000/svg" viewBox="0 0 200 200"><defs><style>.cls-1{fill:#e6e6e6;}.cls-2{fill:#060;}</style></defs><title>no-thumbnail</title><rect class="cls-1" width="200" height="200"/><path class="cls-2" d="M26,90v5.84H24V80.92h5.51a5.52,5.52,0,0,1,3.84,1.25,4.72,4.72,0,0,1,0,6.66A5.81,5.81,0,0,1,29.52,90Zm0-1.61h3.54A3.57,3.57,0,0,0,32,87.65a2.74,2.74,0,0,0,.84-2.16A2.79,2.79,0,0,0,32,83.36a3.34,3.34,0,0,0-2.31-.84H26Z" transform="translate(0 0)"/><path class="cls-2" d="M48.75,95.84h-2v-6.9H39.25v6.9h-2V80.92h2v6.41h7.52V80.92h2Z" transform="translate(0 0)"/><path class="cls-2" d="M63.73,88.86A9.12,9.12,0,0,1,63,92.69a5.57,5.57,0,0,1-2.09,2.5,5.77,5.77,0,0,1-3.16.86,5.59,5.59,0,0,1-5.24-3.34A8.84,8.84,0,0,1,51.73,89V87.92a9.28,9.28,0,0,1,.74-3.81,5.56,5.56,0,0,1,5.25-3.4,5.8,5.8,0,0,1,3.17.87A5.51,5.51,0,0,1,63,84.09a9.15,9.15,0,0,1,.74,3.83Zm-2-1a6.72,6.72,0,0,0-1.06-4.08,3.54,3.54,0,0,0-3-1.42,3.48,3.48,0,0,0-2.93,1.42,6.52,6.52,0,0,0-1.11,3.94v1.1a6.65,6.65,0,0,0,1.09,4A3.79,3.79,0,0,0,60.7,93a6.66,6.66,0,0,0,1.07-4Z" transform="translate(0 0)"/><path class="cls-2" d="M76.72,82.52H71.93V95.84H70V82.52H65.18v-1.6H76.72Z" transform="translate(0 0)"/><path class="cls-2" d="M90.14,88.86a9.28,9.28,0,0,1-.74,3.83,5.63,5.63,0,0,1-2.09,2.5,5.82,5.82,0,0,1-3.16.86,5.59,5.59,0,0,1-5.25-3.34A8.84,8.84,0,0,1,78.13,89V87.92a9.12,9.12,0,0,1,.75-3.81,5.56,5.56,0,0,1,5.25-3.4,5.77,5.77,0,0,1,3.16.87,5.53,5.53,0,0,1,2.11,2.51,9.31,9.31,0,0,1,.74,3.83Zm-2-1a6.72,6.72,0,0,0-1.07-4.08,3.52,3.52,0,0,0-3-1.42,3.49,3.49,0,0,0-2.94,1.42,6.59,6.59,0,0,0-1.1,3.94v1.1a6.72,6.72,0,0,0,1.08,4A3.79,3.79,0,0,0,87.1,93a6.66,6.66,0,0,0,1.08-4Z" transform="translate(0 0)"/><path class="cls-2" d="M109.27,91.11a5.44,5.44,0,0,1-1.75,3.65,5.71,5.71,0,0,1-3.91,1.29,5.25,5.25,0,0,1-4.24-1.9,7.62,7.62,0,0,1-1.59-5.07V87.64A8.42,8.42,0,0,1,98.52,84a5.5,5.5,0,0,1,2.11-2.42,5.81,5.81,0,0,1,3.15-.85A5.39,5.39,0,0,1,107.6,82a5.54,5.54,0,0,1,1.67,3.67h-2a4.31,4.31,0,0,0-1.11-2.59,3.39,3.39,0,0,0-2.4-.8,3.52,3.52,0,0,0-3,1.4,6.36,6.36,0,0,0-1.08,4v1.44a6.53,6.53,0,0,0,1,3.87,3.28,3.28,0,0,0,2.84,1.44,3.84,3.84,0,0,0,2.52-.74,4.16,4.16,0,0,0,1.16-2.59Z" transform="translate(0 0)"/><path class="cls-2" d="M123.44,88.86a9.12,9.12,0,0,1-.74,3.83,5.63,5.63,0,0,1-2.09,2.5,5.77,5.77,0,0,1-3.16.86,5.59,5.59,0,0,1-5.24-3.34,9,9,0,0,1-.78-3.71V87.92a9.12,9.12,0,0,1,.75-3.81,5.56,5.56,0,0,1,5.25-3.4,5.8,5.8,0,0,1,3.17.87,5.51,5.51,0,0,1,2.1,2.51,9.15,9.15,0,0,1,.74,3.83Zm-2-1a6.72,6.72,0,0,0-1.06-4.08,3.54,3.54,0,0,0-3-1.42,3.48,3.48,0,0,0-2.93,1.42,6.52,6.52,0,0,0-1.11,3.94v1.1a6.72,6.72,0,0,0,1.08,4,3.8,3.8,0,0,0,5.94.08,6.73,6.73,0,0,0,1.07-4Z" transform="translate(0 0)"/><path class="cls-2" d="M128.94,80.92l4.88,12.18,4.88-12.18h2.55V95.84h-2V90l.19-6.27-4.9,12.08h-1.51l-4.89-12,.19,6.24v5.81h-2V80.92Z" transform="translate(0 0)"/><path class="cls-2" d="M146.84,95.84h-2V80.92h2Z" transform="translate(0 0)"/><path class="cls-2" d="M161.91,95.84h-2l-7.52-11.5v11.5h-2V80.92h2L160,92.47V80.92h1.95Z" transform="translate(0 0)"/><path class="cls-2" d="M176.43,93.89a4.55,4.55,0,0,1-2.11,1.62,8.56,8.56,0,0,1-3.17.54,6.18,6.18,0,0,1-3.24-.86,5.75,5.75,0,0,1-2.19-2.43,8.43,8.43,0,0,1-.79-3.66V87.8a7.83,7.83,0,0,1,1.57-5.23,5.49,5.49,0,0,1,4.43-1.86,5.69,5.69,0,0,1,3.76,1.19,5.21,5.21,0,0,1,1.74,3.39h-2a3.24,3.24,0,0,0-3.52-3,3.48,3.48,0,0,0-3,1.39,6.75,6.75,0,0,0-1,4V89a6.34,6.34,0,0,0,1.15,4,3.7,3.7,0,0,0,3.1,1.48,6.62,6.62,0,0,0,1.94-.25,3,3,0,0,0,1.37-.82V90H171V88.41h5.41Z" transform="translate(0 0)"/><path class="cls-2" d="M78.12,114.39a9.3,9.3,0,0,1-3.69-1.79A3.41,3.41,0,0,1,73.28,110a3.61,3.61,0,0,1,1.41-2.92,5.59,5.59,0,0,1,3.66-1.15,6.24,6.24,0,0,1,2.75.59A4.53,4.53,0,0,1,83,108.15a4.11,4.11,0,0,1,.67,2.28h-2a2.73,2.73,0,0,0-.86-2.13,3.52,3.52,0,0,0-2.44-.78,3.58,3.58,0,0,0-2.27.64,2.15,2.15,0,0,0-.81,1.78,2,2,0,0,0,.77,1.55,7.69,7.69,0,0,0,2.64,1.16,12.27,12.27,0,0,1,2.91,1.15,4.44,4.44,0,0,1,1.56,1.47,3.74,3.74,0,0,1,.51,2,3.51,3.51,0,0,1-1.42,2.91,6,6,0,0,1-3.78,1.09,7.05,7.05,0,0,1-2.87-.59A4.76,4.76,0,0,1,73.53,119a3.92,3.92,0,0,1-.72-2.32h2a2.58,2.58,0,0,0,1,2.14,4.2,4.2,0,0,0,2.67.78,3.84,3.84,0,0,0,2.39-.64,2.07,2.07,0,0,0,.83-1.73,2,2,0,0,0-.77-1.7A8.83,8.83,0,0,0,78.12,114.39Z" transform="translate(0 0)"/><path class="cls-2" d="M97.66,114.06a9.09,9.09,0,0,1-.74,3.83,5.57,5.57,0,0,1-2.09,2.5,5.77,5.77,0,0,1-3.16.86,5.59,5.59,0,0,1-5.24-3.34,8.84,8.84,0,0,1-.77-3.71v-1.08a9.32,9.32,0,0,1,.74-3.81,5.56,5.56,0,0,1,5.25-3.4,5.8,5.8,0,0,1,3.17.87,5.51,5.51,0,0,1,2.1,2.51,9.15,9.15,0,0,1,.74,3.83Zm-2-1A6.72,6.72,0,0,0,94.64,109a3.54,3.54,0,0,0-3-1.42A3.48,3.48,0,0,0,88.72,109,6.52,6.52,0,0,0,87.61,113v1.1a6.65,6.65,0,0,0,1.09,4,3.79,3.79,0,0,0,5.93.08,6.64,6.64,0,0,0,1.07-4Z" transform="translate(0 0)"/><path class="cls-2" d="M112.1,114.06a9.25,9.25,0,0,1-.74,3.83,5.63,5.63,0,0,1-2.09,2.5,5.8,5.8,0,0,1-3.16.86,5.56,5.56,0,0,1-5.24-3.34,8.84,8.84,0,0,1-.78-3.71v-1.08a9.15,9.15,0,0,1,.75-3.81,5.56,5.56,0,0,1,5.25-3.4,5.8,5.8,0,0,1,3.17.87,5.51,5.51,0,0,1,2.1,2.51,9.31,9.31,0,0,1,.74,3.83Zm-2-1a6.72,6.72,0,0,0-1.06-4.08,3.81,3.81,0,0,0-5.93,0,6.59,6.59,0,0,0-1.1,3.94v1.1a6.72,6.72,0,0,0,1.08,4,3.51,3.51,0,0,0,3,1.47,3.46,3.46,0,0,0,3-1.39,6.64,6.64,0,0,0,1.08-4Z" transform="translate(0 0)"/><path class="cls-2" d="M126.53,121h-2L117,109.54V121h-2V106.12h2l7.54,11.55V106.12h2Z" transform="translate(0 0)"/></svg>